<svg width="24" height="24" viewBox="0 0 24 24" fill="none" xmlns="http://www.w3.org/2000/svg">
  <path d="M12 8.2C9.9 8.2 8.2 9.9 8.2 12C8.2 14.1 9.9 15.8 12 15.8C14.1 15.8 15.8 14.1 15.8 12C15.8 9.9 14.1 8.2 12 8.2Z" stroke="#E8ECF4" stroke-width="1.6"/>
  <path d="M4.5 12.5C4.5 12.2 4.5 11.8 4.5 11.5L2.8 10.5C2.5 10.3 2.4 9.9 2.6 9.6L4.2 6.7C4.4 6.4 4.8 6.3 5.1 6.4L7 7.2C7.6 6.8 8.2 6.4 8.8 6.2L9.1 4.1C9.1 3.7 9.4 3.4 9.8 3.4H14.2C14.6 3.4 14.9 3.7 14.9 4.1L15.2 6.2C15.8 6.4 16.4 6.8 17 7.2L18.9 6.4C19.2 6.3 19.6 6.4 19.8 6.7L21.4 9.6C21.6 9.9 21.5 10.3 21.2 10.5L19.5 11.5C19.5 11.8 19.5 12.2 19.5 12.5C19.5 12.8 19.5 13.2 19.5 13.5L21.2 14.5C21.5 14.7 21.6 15.1 21.4 15.4L19.8 18.3C19.6 18.6 19.2 18.7 18.9 18.6L17 17.8C16.4 18.2 15.8 18.6 15.2 18.8L14.9 20.9C14.9 21.3 14.6 21.6 14.2 21.6H9.8C9.4 21.6 9.1 21.3 9.1 20.9L8.8 18.8C8.2 18.6 7.6 18.2 7 17.8L5.1 18.6C4.8 18.7 4.4 18.6 4.2 18.3L2.6 15.4C2.4 15.1 2.5 14.7 2.8 14.5L4.5 13.5C4.5 13.2 4.5 12.8 4.5 12.5Z" stroke="#E8ECF4" stroke-width="1.2" stroke-linejoin="round"/>
</svg>
